<svg width="1627" height="1457" viewBox="0 0 1627 1457" fill="none" xmlns="http://www.w3.org/2000/svg">
<path fill-rule="evenodd" clip-rule="evenodd" d="M786.997 3.13929C666.838 8.9116 537.941 51.7989 434.112 120.554C347.972 177.595 266.276 260.1 214.513 342.318C85.0894 547.896 69.5506 789.565 171.095 1017.6L184.648 1048.04L157.206 1077.17C127.254 1108.97 87.8083 1159.88 67.7191 1192.68C21.8352 1267.58 -8.74519 1367.63 2.24339 1406.89C16.8293 1458.99 88.2252 1474.69 124.196 1433.72C133.198 1423.46 135.542 1416.63 148.135 1363.94C168.695 1277.92 218.921 1205.49 289.653 1159.85C303.431 1150.96 462.513 1054.94 643.169 946.478C1239.59 588.395 1224.35 597.875 1281.33 549.57C1326.01 511.702 1376.57 454.797 1412.05 402.451C1436.54 366.327 1467.76 301.036 1483.48 253.076C1507.06 181.173 1518.08 113.346 1518.08 40.2245V0L1171.89 0.640364C981.495 0.991826 808.289 2.11766 786.997 3.13929ZM797.42 142.973C598.253 154.426 412.358 270.766 313.985 445.531C238.998 578.75 225.704 757.478 279.274 912.246C290.555 944.834 307.854 985.672 310.379 985.672C311.082 985.672 385.107 941.644 474.88 887.834C564.65 834.025 711.804 746.061 801.887 692.362C1050.65 544.069 1096.68 516.131 1134.38 490.53C1260.39 404.991 1338.53 288.437 1360.07 153.928L1362.34 139.781L1099.98 140.221C955.682 140.466 819.531 141.705 797.42 142.973ZM1540.41 663.661C1519.67 669.04 1502.72 682.768 1492.97 702.087C1489.99 707.981 1486.83 725.775 1485.01 746.764C1462.8 1003.37 1278.24 1223.4 1031.19 1287.82C983.279 1300.3 951.26 1304.67 894.203 1306.46C759.177 1310.72 636.766 1276.49 529.525 1204.51C504.519 1187.72 494.171 1182.31 490.812 1184.24C449.246 1208.13 371.632 1255.75 371.608 1257.37C371.537 1262.1 419.985 1300.59 456.798 1325.06C568.265 1399.14 686.218 1437.76 830.71 1447.47C960.259 1456.19 1094.52 1428.91 1207.52 1370.92C1243.22 1352.59 1305.24 1312.73 1337.63 1287.29C1370.06 1261.83 1451.65 1178.27 1476.17 1145.43C1563.19 1028.85 1613.43 901.005 1625.38 765.746C1629.54 718.593 1626.38 703.835 1607.82 683.826C1592.27 667.063 1562.1 658.035 1540.41 663.661Z" fill="#6B8E4E"/>
</svg>
