<svg width="57" height="53" viewBox="0 0 57 53" fill="none" xmlns="http://www.w3.org/2000/svg">
<path fill-rule="evenodd" clip-rule="evenodd" d="M27.5715 0.114195C23.3619 0.324169 18.8461 1.88424 15.2086 4.3853C12.1908 6.46023 9.32865 9.46141 7.51522 12.4522C2.98101 19.9303 2.43662 28.7213 5.99411 37.0163L6.46891 38.1235L5.50753 39.1832C4.45819 40.3399 3.07626 42.1919 2.37246 43.3849C0.764969 46.1095 -0.306377 49.749 0.0785943 51.1771C0.589594 53.0723 3.09086 53.6437 4.35104 52.1532C4.66643 51.7801 4.74854 51.5316 5.18974 49.6148C5.91002 46.4858 7.66962 43.8509 10.1476 42.1908C10.6304 41.8673 16.2036 38.3747 22.5327 34.4292C43.4276 21.4035 42.8935 21.7484 44.89 19.9912C46.4551 18.6137 48.2264 16.5438 49.4696 14.6396C50.3274 13.3256 51.4213 10.9505 51.9721 9.20593C52.7979 6.59035 53.1841 4.1231 53.1841 1.46321V0L41.0559 0.023294C34.3855 0.0360788 28.3174 0.0770324 27.5715 0.114195ZM27.9367 5.20082C20.9591 5.61741 14.4465 9.8494 11.0001 16.2067C8.37301 21.0527 7.90729 27.5541 9.78405 33.184C10.1792 34.3694 10.7853 35.8549 10.8738 35.8549C10.8984 35.8549 13.4918 34.2533 16.6369 32.296C19.7818 30.3386 24.9372 27.1388 28.0931 25.1854C36.8082 19.7911 38.4207 18.7748 39.7418 17.8436C44.1562 14.732 46.8939 10.4922 47.6485 5.59931L47.7278 5.08467L38.5365 5.10071C33.4812 5.10959 28.7113 5.15466 27.9367 5.20082ZM53.9666 24.1414C53.2398 24.3371 52.646 24.8365 52.3044 25.5392C52.2002 25.7536 52.0892 26.4009 52.0255 27.1644C51.2475 36.4988 44.7817 44.5026 36.1264 46.8457C34.448 47.3 33.3262 47.4586 31.3273 47.524C26.5969 47.6788 22.3083 46.4339 18.5513 43.8154C17.6752 43.2048 17.3127 43.0077 17.195 43.0779C15.7388 43.947 13.0197 45.6793 13.0188 45.7382C13.0163 45.9102 14.7137 47.3103 16.0034 48.2004C19.9085 50.8952 24.0408 52.3 29.1029 52.6535C33.6415 52.9705 38.3453 51.9782 42.3041 49.8686C43.5546 49.2021 45.7275 47.7522 46.8623 46.8268C47.9985 45.9003 50.857 42.8609 51.7159 41.6661C54.7646 37.4256 56.5247 32.7751 56.9431 27.8549C57.089 26.1396 56.9782 25.6028 56.3281 24.8749C55.7834 24.2651 54.7264 23.9367 53.9666 24.1414Z" fill="#F0ECE1"/>
</svg>
